<?xml version="1.0" ?><!DOCTYPE svg  PUBLIC '-//W3C//DTD SVG 1.1//EN'  'http://www.w3.org/Graphics/SVG/1.1/DTD/svg11.dtd'><svg enable-background="new 0 0 128 128" id="Слой_1" version="1.1" viewBox="0 0 128 128" xml:space="preserve" xmlns="http://www.w3.org/2000/svg" xmlns:xlink="http://www.w3.org/1999/xlink"><g><g><g><path d="M78.7,104.6v8l0,0c-4.3,14.8-25.2,14.8-29.4,0l0,0l0-8" fill="#F7EBDE"/></g><g><g><g><path d="M49.3,112.6L49.3,112.6l-27.2,11.1h39.7c-0.2-0.1-0.4-0.2-0.6-0.3C55.9,122.4,51.1,118.8,49.3,112.6z" fill="#CFCDD1"/></g></g><g><g><path d="M105.9,123.6l-27.2-11.1l0,0c-1.8,6.3-6.6,9.9-11.9,10.8c-0.2,0.1-0.4,0.2-0.6,0.3L105.9,123.6z" fill="#CFCDD1"/></g></g></g><g opacity="0.15"><path d="M49.3,110.7c6.1,3.4,11.4,4.1,14.7,4.1c3.8,0,8.9-0.8,14.7-4v-6.2H49.3V110.7z" fill="#62345B"/></g><g><path d="M103.7,52.9C103.7,20.6,87.6,4,64,4S24.3,20.6,24.3,52.9c-7.7,0.6-5.9,17.9,2.8,16.9     c11.1,30.9,26.5,39,37,39s25.9-8.2,37-39C109.7,70.8,111.4,53.5,103.7,52.9z" fill="#F7EBDE"/></g><g opacity="0.15"><path d="M103.7,52.9c0-3.1-79.5-3.1-79.5,0c-7.7,0.6-5.9,17.9,2.8,16.9c1.4,4,2.9,4.6,4.5,7.9     c1,0.3,2,0.4,3.1,0.4h19.7c2.5,0,4.9-0.8,6.8-2.2c1.7-1.3,4.1-1.3,5.8,0c1.9,1.4,4.3,2.2,6.8,2.2h19.7c1.1,0,2.1-0.2,3.1-0.4     c1.6-3.3,3.1-3.9,4.5-7.9C109.7,70.8,111.4,53.5,103.7,52.9z" fill="#62345B"/></g><g><path d="M104.2,53c-0.2,0-0.3,0-0.5-0.1C103.7,20.6,87.6,4,64,4C40.8,4,24.9,20,24.3,51.2     C40.4,13.1,65.1,64.3,104.2,53z" fill="#DEBAAB"/></g><g><rect fill="#B09AAC" height="29.4" transform="matrix(0.3769 0.9263 -0.9263 0.3769 131.6296 40.5333)" width="3" x="34.2" y="103.4"/></g><g><rect fill="#B09AAC" height="3" transform="matrix(0.9263 0.3769 -0.3769 0.9263 51.3159 -26.082)" width="29.4" x="77.6" y="116.6"/></g><g><path d="M64,125.1c-7.7,0-14-4.8-16.2-12.2l-0.1-0.2v-8.2h3v7.7c1.8,6,7,9.8,13.2,9.8c6.2,0,11.4-3.8,13.2-9.8     v-7.7h3v8.2l-0.1,0.2C78,120.4,71.7,125.1,64,125.1z" fill="#B09AAC"/></g><g><g><path d="M26.3,71.3c-2.4,0-4.6-1.2-6.1-3.3c-2.5-3.5-3.1-9.1-1.3-12.8c1.1-2.3,2.9-3.7,5.3-3.8l0.2,3      c-1.2,0.1-2.1,0.8-2.8,2.1c-1.3,2.8-0.8,7.1,1,9.7c1.1,1.5,2.5,2.2,4.2,2.1l0.3,3C26.9,71.3,26.6,71.3,26.3,71.3z" fill="#B09AAC"/></g><g><path d="M101.7,71.3c-0.3,0-0.6,0-0.9,0l0.3-3c1.7,0.2,3.1-0.5,4.2-2.1c1.9-2.6,2.3-7,1-9.7      c-0.6-1.3-1.5-2-2.8-2.1l0.2-3c2.3,0.2,4.2,1.5,5.3,3.8c1.7,3.7,1.2,9.3-1.3,12.8C106.2,70.2,104.1,71.3,101.7,71.3z" fill="#B09AAC"/></g><g><path d="M64,110.3c-7.2,0-25.4-3.9-38.4-40l0-0.1c-1.3-4.8-2.8-10.3-2.8-17.3C22.8,21.3,38.2,2.5,64,2.5      s41.2,18.8,41.2,50.4c0,4.7-1.1,12.5-2.9,17.4C89.4,106.4,71.2,110.3,64,110.3z M28.5,69.3c12.3,34.3,29,38,35.5,38      c6.6,0,23.3-3.7,35.6-38c1.7-4.5,2.7-12,2.7-16.4c0-29.7-14.3-47.4-38.2-47.4S25.8,23.2,25.8,52.9      C25.8,59.4,27.1,64.5,28.5,69.3z" fill="#B09AAC"/></g></g><g><path d="M92.5,56.2c-13,0-24.3-5.9-33.8-10.8C49.9,40.7,42.2,36.7,36,39c-4.3,1.6-7.9,6.3-11,14.4l-2.8-1.1     c3.5-8.9,7.6-14.2,12.8-16.1c7.4-2.8,15.6,1.5,25.2,6.5c12.5,6.5,26.7,13.9,43.8,8.8l0.9,2.9C100.6,55.6,96.5,56.2,92.5,56.2z" fill="#B09AAC"/></g></g><g><g opacity="0.8"><path d="M32.8,76.8h20.9c2.6,0,5-1.8,5.6-4.4l1.3-7.2c0.3-1.6,1.7-2.8,3.4-2.8h0c1.7,0,3.1,1.2,3.4,2.8l1.3,7.2     c0.6,2.6,2.9,4.4,5.6,4.4h20.9c3.2,0,5.8-2.6,5.8-5.8v0c3.6-3.7,5.6-8.6,5.6-13.8v-2.3c0-0.7-0.3-1.5-0.8-2l-3.9-4     c-0.5-0.6-1.3-0.9-2.1-0.9H28.3c-0.8,0-1.5,0.3-2.1,0.9l-3.9,4c-0.5,0.5-0.8,1.3-0.8,2v2.3c0,5.1,2,10.1,5.6,13.8l0,0     C27.1,74.2,29.7,76.8,32.8,76.8z" fill="#ECF8FB"/></g><g opacity="0.15"><g><path d="M55.2,72.5l0.9-5.2c0.5-2.6,3.1-4.8,5.7-4.8h0c0.6,0,2.1,0.1,2.6,0.4c-0.9,0.5-3.7,1.4-3.8,2.5l-1.3,7.2      c-0.6,2.6-2.9,4.4-5.6,4.4h-4.1C52.2,76.8,54.5,75,55.2,72.5z" fill="#62345B"/></g></g><g><path d="M34.1,62.6c-0.8,0-1.5-0.7-1.5-1.5V48.6c0-0.8,0.7-1.5,1.5-1.5s1.5,0.7,1.5,1.5v12.5     C35.6,61.9,34.9,62.6,34.1,62.6z" fill="#FFFFFF"/></g><g><path d="M39.1,57.6c-0.8,0-1.5-0.7-1.5-1.5v-7.5c0-0.8,0.7-1.5,1.5-1.5s1.5,0.7,1.5,1.5v7.5     C40.6,56.9,39.9,57.6,39.1,57.6z" fill="#FFFFFF"/></g><g opacity="0.15"><g><path d="M94.7,71.1l0.3-22.2c-0.5-0.6-0.7-0.9-1.5-0.9h6.3c0.8,0,1,0.3,1.5,0.9l-0.3,22.2c0,3.2-2.6,5.8-5.8,5.8      h-6.3C92.1,76.8,94.7,74.2,94.7,71.1z" fill="#62345B"/></g></g><g opacity="0.25"><path d="M101.8,48.9l3.9,4c0.5,0.5,0.8,1.3,0.8,2v2.3c0,5.1-2,10.1-5.6,13.8l0,0V48.3     C101.2,48.4,101.5,48.6,101.8,48.9z" fill="#62345B"/></g><g><path d="M95.2,78.3H74.3c-3.3,0-6.2-2.3-7-5.5c0,0,0-0.1,0-0.1l-1.3-7.2c-0.2-0.9-1-1.6-1.9-1.6s-1.7,0.7-1.9,1.6     l-1.3,7.2c0,0,0,0.1,0,0.1c-0.8,3.2-3.7,5.5-7,5.5H32.8c-3.8,0-6.9-2.9-7.2-6.6c-3.6-3.9-5.6-9-5.6-14.4v-2.3     c0-1.1,0.4-2.2,1.2-3l3.9-4c0.8-0.8,2-1.3,3.2-1.3h71.4c1.2,0,2.3,0.5,3.2,1.3l3.9,4c0.8,0.8,1.2,1.9,1.2,3v2.3     c0,5.4-2,10.5-5.6,14.4C102.1,75.4,99,78.3,95.2,78.3z M70.1,72.1c0.5,1.9,2.2,3.2,4.1,3.2h20.9c2.4,0,4.3-1.9,4.3-4.3     c0-0.4,0.2-0.8,0.4-1c3.3-3.4,5.2-8,5.2-12.7v-2.3c0-0.4-0.1-0.7-0.4-1l-3.9-4c-0.3-0.3-0.6-0.4-1-0.4H28.3c-0.4,0-0.7,0.2-1,0.4     l-3.9,4c-0.2,0.3-0.4,0.6-0.4,1v2.3c0,4.8,1.8,9.3,5.2,12.7c0.3,0.3,0.4,0.7,0.4,1c0,2.4,1.9,4.3,4.3,4.3h20.9     c1.9,0,3.6-1.3,4.1-3.2l1.3-7.2c0.4-2.4,2.5-4.1,4.9-4.1s4.4,1.7,4.9,4.1L70.1,72.1z" fill="#62345B"/></g><g><path d="M27.1,72.6c-0.8,0-1.5-0.7-1.5-1.5V48.6c0-0.8,0.7-1.5,1.5-1.5s1.5,0.7,1.5,1.5v22.5     C28.6,71.9,27.9,72.6,27.1,72.6z" fill="#62345B"/></g><g><path d="M100.9,72.6c-0.8,0-1.5-0.7-1.5-1.5V48.6c0-0.8,0.7-1.5,1.5-1.5s1.5,0.7,1.5,1.5v22.5     C102.4,71.9,101.8,72.6,100.9,72.6z" fill="#62345B"/></g></g></g></svg>