<?xml version="1.0" ?><svg id="Layer_3" style="enable-background:new 0 0 64 64;" version="1.1" viewBox="0 0 64 64" xml:space="preserve" xmlns="http://www.w3.org/2000/svg" xmlns:xlink="http://www.w3.org/1999/xlink"><g><g><path d="M54,48H39v-2h14.586l1.707-1.707l1.414,1.414l-2,2C54.52,47.895,54.266,48,54,48z" style="fill:#3279EA;"/></g><polyline points="40,55 45,55 45,52 40,52  " style="fill:#939393;"/><path d="M26,36l-8,2l-2.096-1.904L17,35l6-2l0.211-0.422C24.307,30.385,26.549,29,29,29h0" style="fill:#FAD85D;"/><path d="M26,46l-1,6h-4.879c-1.358,0-2.661-0.54-3.621-1.5h0c-0.96-0.96-1.5-2.263-1.5-3.621v0   c0-1.235,0.288-2.454,0.84-3.559L18,39v-1.192C18,36.809,17.191,36,16.192,36h0c-0.723,0-1.377,0.431-1.662,1.096L9,50v6h32v0   c0-2.662-0.22-5.32-0.658-7.946L40,46l0,0" style="fill:#2458AD;"/><path d="M12,54h22c1.105,0,2-0.895,2-2v-6H26l-1,6h-4.879c-1.358,0-2.661-0.54-3.621-1.5   S15,48.237,15,46.879c0-1.235,0.288-2.454,0.84-3.559L18,39v-1.192C18,36.809,17.191,36,16.192,36   c-0.723,0-1.377,0.431-1.662,1.096L10,47.667V52C10,53.105,10.895,54,12,54z" style="fill:#3279EA;"/><g><path d="M16,51h1.11c-0.212-0.155-0.422-0.312-0.61-0.5c-0.96-0.96-1.5-2.263-1.5-3.621    c0-1.235,0.288-2.454,0.84-3.559L17.5,40H16c-1.105,0-2,0.895-2,2v7C14,50.105,14.895,51,16,51z" style="fill:#2862BE;"/><path d="M30,49v-3h-4l-0.833,5H28C29.105,51,30,50.105,30,49z" style="fill:#2862BE;"/></g><path d="M36.816,56C36.928,56.314,37,56.647,37,57c0,1.657-1.343,3-3,3s-3-1.343-3-3   c0-0.353,0.072-0.686,0.184-1H29v1c0,2.761,2.239,5,5,5s5-2.239,5-5v-1H36.816z" style="fill:#686868;"/><path d="M12,57c0,1.657-1.343,3-3,3s-3-1.343-3-3H4c0,2.761,2.239,5,5,5s5-2.239,5-5H12z" style="fill:#686868;"/><rect height="12" style="fill:#F6B940;" width="16" x="36" y="32"/><path d="M36,32v10h12c1.105,0,2-0.895,2-2v-8H36z" style="fill:#FAD85D;"/><path d="M45.211,24.843L51,28l5.789-3.157C60.001,23.09,62,19.723,62,16.064V6h0   c-3.884,0-7.652-1.322-10.685-3.748L51,2l-0.315,0.252C47.652,4.678,43.884,6,40,6h0v10.064C40,19.723,41.999,23.09,45.211,24.843z   " style="fill:#2862BE;"/><path d="M57,5.237c-2.052-0.628-3.986-1.626-5.685-2.985L51,2l-0.315,0.252C47.652,4.678,43.884,6,40,6   v10.064c0,1.765,0.474,3.456,1.316,4.936H55c1.105,0,2-0.895,2-2V5.237z" style="fill:#3279EA;"/><path d="M16,57c0-3.866-3.134-7-7-7s-7,3.134-7,7H16z" style="fill:#2862BE;"/><path d="M13.92,57c-0.486-3.391-3.395-6-6.92-6c-0.72,0-1.415,0.109-2.069,0.311C3.159,52.581,2,54.653,2,57   H13.92z" style="fill:#3279EA;"/><circle cx="28" cy="20" r="6" style="fill:#FBE1CA;"/><path d="M25.621,19.379l0.757-0.757c0.398-0.398,0.937-0.621,1.5-0.621C29.05,18,30,18.95,30,20.121v0.641   c0,1.371,0.775,2.625,2.001,3.238l0.317,0.159C33.358,23.08,34,21.616,34,20c0-3.314-2.686-6-6-6s-6,2.686-6,6h2.121   C24.684,20,25.224,19.776,25.621,19.379z" style="fill:#F6B940;"/><path d="M22,52l1-6l5.099-1.457c1.227-0.351,2.29-1.126,2.998-2.188l0,0C31.686,41.471,32,40.433,32,39.371   V29h-3l0,0c-1.874,1.249-3,3.353-3,5.606V40l-7,3v9" style="fill:#4C506E;"/><path d="M8,43v-8h0c2.209,0,4,1.791,4,4v0C12,41.209,10.209,43,8,43L8,43z" style="fill:#2862BE;"/><path d="M26,34.606V40h5.954C31.978,39.792,32,39.583,32,39.371V29h-3C27.126,30.249,26,32.353,26,34.606z" style="fill:#F6B940;"/><path d="M26,46L26,46c0.613,1.226,1.866,2,3.236,2h7.528c1.37,0,2.623-0.774,3.236-2l0,0   c-1.956-1.304-4.255-2-6.606-2h-0.789C30.255,44,27.956,44.696,26,46L26,46z" style="fill:#686868;"/><g><rect height="2" style="fill:#FCE797;" width="6" x="39" y="39"/></g><g><rect height="2" style="fill:#FCE797;" width="6" x="43" y="35"/></g><g><rect height="2" style="fill:#E1656E;" width="2" x="58" y="8"/></g><g><rect height="2" style="fill:#F29B99;" width="2" x="47" y="22"/></g><g><rect height="2" style="fill:#BA4753;" width="2" x="42" y="8"/></g><g><rect height="2" style="fill:#F29B99;" width="3" x="44" y="14"/></g><polyline points="52,8 52,11 50,11 50,8  " style="fill:#E1656E;"/><g><rect height="3" style="fill:#E1656E;" width="2" x="50" y="19"/></g><g><rect height="2" style="fill:#F29B99;" width="3" x="55" y="14"/></g><circle cx="51" cy="15" r="4" style="fill:#E1656E;"/><g><path d="M51,20c-2.757,0-5-2.243-5-5s2.243-5,5-5s5,2.243,5,5S53.757,20,51,20z M51,12    c-1.654,0-3,1.346-3,3s1.346,3,3,3s3-1.346,3-3S52.654,12,51,12z" style="fill:#BA4753;"/></g><g><rect height="5.657" style="fill:#8D353E;" transform="matrix(0.7071 -0.7071 0.7071 0.7071 5.5736 37.4558)" width="2" x="47" y="9.172"/></g><g><rect height="2" style="fill:#F29B99;" transform="matrix(0.7071 -0.7071 0.7071 0.7071 7.331 41.6985)" width="5.657" x="51.172" y="11"/></g><g><rect height="2" style="fill:#F29B99;" transform="matrix(0.7071 -0.7071 0.7071 0.7071 1.331 39.2132)" width="5.657" x="45.172" y="17"/></g><g><rect height="5.657" style="fill:#8D353E;" transform="matrix(0.7071 -0.7071 0.7071 0.7071 3.0883 43.4558)" width="2" x="53" y="15.172"/></g><path d="M37,45v-0.436C35.84,44.195,34.625,44,33.394,44h-0.789c-2.351,0-4.649,0.696-6.606,2h10   C36.552,46,37,45.552,37,45z" style="fill:#939393;"/><circle cx="50" cy="57" r="3" style="fill:#E2E7F6;"/><circle cx="53" cy="54" r="4" style="fill:#C8CDED;"/><circle cx="57.5" cy="57.5" r="4.5" style="fill:#E2E7F6;"/><path d="M28,27c3.859,0,7-3.141,7-7s-3.141-7-7-7s-7,3.141-7,7S24.141,27,28,27z M23.101,21h1.02c0.822,0,1.626-0.333,2.207-0.914   l0.758-0.758C27.295,19.119,27.584,19,27.879,19C28.497,19,29,19.503,29,20.121v0.643c0,1.368,0.596,2.623,1.599,3.487   C29.839,24.717,28.955,25,28,25C25.586,25,23.566,23.279,23.101,21z M28,15c2.757,0,5,2.243,5,5c0,1.065-0.34,2.048-0.91,2.86   C31.419,22.373,31,21.614,31,20.764v-0.643C31,18.4,29.6,17,27.879,17c-0.822,0-1.626,0.333-2.207,0.914l-0.758,0.758   C24.705,18.881,24.416,19,24.121,19h-1.02C23.566,16.721,25.586,15,28,15z"/><rect height="2" width="6" x="39" y="39"/><rect height="2" width="6" x="43" y="35"/><path d="M50,8v2.101c-0.637,0.13-1.229,0.384-1.753,0.732l-1.49-1.49l-1.414,1.414l1.49,1.49c-0.348,0.524-0.602,1.116-0.732,1.753   H44v2h2.101c0.13,0.637,0.384,1.229,0.732,1.753l-1.49,1.49l1.414,1.414l1.49-1.49c0.524,0.348,1.116,0.602,1.753,0.732V22h2   v-2.101c0.637-0.13,1.229-0.384,1.753-0.732l1.49,1.49l1.414-1.414l-1.49-1.49c0.348-0.524,0.602-1.116,0.732-1.753H58v-2h-2.101   c-0.13-0.637-0.384-1.229-0.732-1.753l1.49-1.49l-1.414-1.414l-1.49,1.49c-0.524-0.348-1.116-0.602-1.753-0.732V8H50z M54,15   c0,0.462-0.113,0.894-0.301,1.285l-0.992-0.992l-1.414,1.414l0.992,0.992C51.894,17.887,51.462,18,51,18c-1.654,0-3-1.346-3-3   c0-0.462,0.113-0.894,0.301-1.285l0.992,0.992l1.414-1.414l-0.992-0.992C50.106,12.113,50.538,12,51,12C52.654,12,54,13.346,54,15z   "/><path d="M62,5c-3.643,0-7.216-1.253-10.061-3.528L51.625,1.22c-0.365-0.293-0.885-0.293-1.25,0l-0.314,0.251   C47.216,3.747,43.643,5,40,5c-0.553,0-1,0.447-1,1v10.063c0,4.027,2.196,7.728,5.733,9.657l5.788,3.157   C50.67,28.959,50.835,29,51,29s0.33-0.041,0.479-0.122l5.788-3.157c3.537-1.93,5.733-5.63,5.733-9.657V6C63,5.447,62.553,5,62,5z    M61,16.063c0,3.295-1.798,6.323-4.69,7.901L51,26.861l-5.31-2.896C42.798,22.387,41,19.358,41,16.063V6.972   c3.613-0.202,7.118-1.494,10-3.696c2.881,2.202,6.386,3.494,10,3.696V16.063z"/><rect height="2" width="2" x="58" y="8"/><rect height="2" width="2" x="47" y="22"/><rect height="2" width="2" x="42" y="8"/><path d="M46,52c0-0.553-0.447-1-1-1h-3.265c-0.102-1.005-0.227-2.007-0.39-3H54c0.266,0,0.52-0.105,0.707-0.293l2-2l-1.414-1.414   L53.586,46H41.014l-0.027-0.164c-0.046-0.273-0.202-0.515-0.432-0.668c-0.089-0.06-0.183-0.111-0.273-0.168H52c0.553,0,1-0.447,1-1   V32c0-0.553-0.447-1-1-1H36c-0.553,0-1,0.447-1,1v11.107C34.47,43.041,33.935,43,33.395,43h-0.789   c-0.258,0-0.515,0.013-0.772,0.028c0.029-0.042,0.067-0.076,0.095-0.118C32.63,41.858,33,40.635,33,39.371V29c0-0.553-0.447-1-1-1   h-3c-2.849,0-5.409,1.583-6.684,4.131l-5.633,1.921c-0.147,0.049-0.281,0.132-0.391,0.241l-0.802,0.802   c-0.83,0.214-1.531,0.795-1.88,1.607l-0.683,1.593C12.582,35.874,10.515,34,8,34c-0.553,0-1,0.447-1,1v8c0,0.553,0.447,1,1,1   c1.075,0,2.065-0.348,2.881-0.928l-2.555,5.962C4.23,49.378,1,52.816,1,57c0,0.553,0.447,1,1,1h1.09c0.478,2.833,2.942,5,5.91,5   s5.431-2.167,5.91-5H16c0.553,0,1-0.447,1-1h11c0,3.309,2.691,6,6,6s6-2.691,6-6h1c0.553,0,1-0.447,1-1h3c0.553,0,1-0.447,1-1V52z    M37,33h14v10H37V33z M9,41.829v-5.658c1.164,0.413,2,1.525,2,2.829S10.164,41.416,9,41.829z M33.395,45   c1.8,0,3.543,0.463,5.119,1.303C38.04,46.735,37.431,47,36.764,47h-7.527c-0.668,0-1.277-0.265-1.749-0.697   C29.062,45.463,30.806,45,32.605,45H33.395z M18.895,39.447C18.964,39.309,19,39.155,19,39v-0.22l6-1.5v2.061l-6.394,2.74   C18.238,42.238,18,42.6,18,43v7.394c-0.285-0.171-0.556-0.364-0.793-0.601C16.44,49.025,16,47.964,16,46.879   c0-1.073,0.254-2.15,0.734-3.112L18.895,39.447z M20,43.659L26.204,41h4.47c-0.112,0.278-0.241,0.548-0.41,0.801   c-0.576,0.863-1.442,1.495-2.44,1.78l-5.099,1.457c-0.371,0.106-0.648,0.417-0.712,0.798L21.153,51h-1.032   c-0.041,0-0.08-0.011-0.121-0.012V43.659z M23.883,46.788l1.021-0.292L24.153,51H23.18L23.883,46.788z M29.316,30H31v9h-4v-4.395   C27,32.78,27.86,31.08,29.316,30z M23.316,33.948c0.251-0.083,0.459-0.264,0.578-0.501l0.211-0.422   c0.426-0.852,1.054-1.546,1.803-2.06C25.321,32.068,25,33.313,25,34.605v0.614l-6.204,1.551c-0.165-0.414-0.429-0.773-0.759-1.062   L23.316,33.948z M9,51c2.968,0,5.439,2.166,5.917,5H3.083C3.561,53.166,6.032,51,9,51z M9,61c-1.859,0-3.411-1.279-3.858-3h7.716   C12.411,59.721,10.859,61,9,61z M16.737,55c-0.772-2.984-3.22-5.295-6.28-5.861l4.993-11.649c0.128-0.298,0.419-0.49,0.743-0.49   C16.638,37,17,37.362,17,37.808v0.956l-2.055,4.109C14.327,44.111,14,45.497,14,46.879c0,1.635,0.637,3.172,1.793,4.328   S18.486,53,20.121,53H25c0.489,0,0.906-0.354,0.986-0.836l0.661-3.965C27.396,48.708,28.288,49,29.236,49h7.527   c0.949,0,1.841-0.292,2.59-0.801l0.003,0.019c0.372,2.235,0.585,4.512,0.633,6.781H16.737z M34,61c-2.206,0-4-1.794-4-4h8   C38,59.206,36.206,61,34,61z M44,54h-2.041c-0.014-0.334-0.04-0.667-0.061-1H44V54z"/><path d="M57.582,52.004C56.798,50.203,55.014,49,53,49c-2.59,0-4.701,1.986-4.951,4.511C46.802,54.21,46,55.537,46,57   c0,2.206,1.794,4,4,4s4-1.794,4-4h-2c0,1.103-0.897,2-2,2s-2-0.897-2-2c0-0.42,0.133-0.818,0.364-1.147   c0.211,0.527,0.504,1.021,0.886,1.454l1.5-1.322C50.267,55.436,50,54.731,50,54c0-1.654,1.346-3,3-3   c1.039,0,1.976,0.534,2.517,1.369c-1.041,0.402-1.949,1.117-2.59,2.074l1.662,1.113C55.241,54.582,56.33,54,57.5,54   c1.93,0,3.5,1.57,3.5,3.5S59.43,61,57.5,61c-0.812,0-1.571-0.269-2.198-0.777l-1.26,1.555C55.016,62.565,56.243,63,57.5,63   c3.032,0,5.5-2.468,5.5-5.5C63,54.495,60.576,52.049,57.582,52.004z"/></g></svg>